PathFileType	4	(X/Y/Z)	58_1_41_p0_0-296_filt_butterworth.trc
DataRate	CameraRate	NumFrames	NumMarkers	Units	OrigDataRate	OrigDataStartFrame	OrigNumFrames
34.0	34.0	6	27	m	34.0	148	296
Frame#	Time	RHip			RKnee			RAnkle			RBigToe			RSmallToe			RHeel			LHip			LKnee			LAnkle			LBigToe			LSmallToe			LHeel			Neck			Head			Nose			RShoulder			RElbow			RWrist			RThumb			RIndex			RPinky			LShoulder			LElbow			LWrist			LThumb			LIndex			LPinky			
		X1	Y1	Z1	X2	Y2	Z2	X3	Y3	Z3	X4	Y4	Z4	X5	Y5	Z5	X6	Y6	Z6	X7	Y7	Z7	X8	Y8	Z8	X9	Y9	Z9	X10	Y10	Z10	X11	Y11	Z11	X12	Y12	Z12	X13	Y13	Z13	X14	Y14	Z14	X15	Y15	Z15	X16	Y16	Z16	X17	Y17	Z17	X18	Y18	Z18	X19	Y19	Z19	X20	Y20	Z20	X21	Y21	Z21	X22	Y22	Z22	X23	Y23	Z23	X24	Y24	Z24	X25	Y25	Z25	X26	Y26	Z26	X27	Y27	Z27	
148	4.352941176470588	0.3307196767255791	0.5830308249813771	1.0934240106004989	0.2982593875610894	0.5899268285216879	1.4926058335560097	0.3161620634659751	0.746797933556532	1.9255623353672402	0.29318643184995175	0.5709480288508066	1.955079997916446	0.34448290811849747	0.6053875752733255	1.9563183967579403	0.2992657261557104	0.8562699293863378	1.9946078361708774	0.1431853711145556	0.5473053542546139	1.0987859278709369	0.14186931471791855	0.6248770192577725	1.4988509027966024	0.11272671700559646	0.7349569265971156	1.9009454683733606	0.13017104219597067	0.57170782362552	1.9526977299167152	0.07833000643120658	0.6129196090884323	1.9567231816007782	0.13108711963566452	0.8015551280484206	1.953255089956492	0.2001630581252653	0.28132355689665084	0.6195090985701766	0.2014158436562924	0.12919927189891672	0.4042292474565653	0.19593413798495052	0.10721923491194821	0.5278854222387342	0.35059608219464455	0.3339028755296537	0.6727615991339331	0.4149895164109747	0.4136772810656709	0.8913532001994711	0.3429832753304135	0.3046096060801725	1.0319587995496597	0.2794195422883027	0.22896383492882674	1.0756901191913255	0.29268488282168914	0.20134806231226485	1.0756106529892764	0.28859133732646614	0.24695564420202826	1.0950304701473235	0.0679200846428962	0.34868723198996393	0.6915644346107253	0.06568823055379848	0.43887376155781166	0.9597699425394146	0.1115682856477016	0.2101273907726498	0.8825394596974176	0.1127686523728815	0.12216684407543396	0.7991960223897234	0.11377058527881966	0.10272381329329766	0.8114022359585953	0.12755227217814086	0.11873516114182686	0.8585407701850887
149	4.382352941176471	0.3309376483045302	0.5823342308709154	1.093332977790221	0.3000765760867583	0.5903833669101528	1.489017179867546	0.31339139151071604	0.7467003630071805	1.9294182506638335	0.29296515324545347	0.571680756324749	1.955290472009417	0.3458292299513175	0.6039685287781767	1.9543624076461024	0.29926384827218183	0.8564927684997121	1.9946938054918157	0.14268136817438387	0.5474398065428852	1.0979053563117145	0.14093939599799368	0.6329785502246711	1.4982775913875326	0.11246771829801339	0.7340824964027894	1.8994673811850085	0.12755960015060389	0.5708255237491944	1.9515676413899037	0.07838957466033847	0.6132302689239579	1.956852128395766	0.12914420193961854	0.7931124579531044	1.949792115081613	0.20015005337303188	0.28232282097720296	0.6154586040080727	0.20654827692701178	0.13737469463132246	0.3967363285007468	0.19564166164200358	0.10648311633427718	0.5233042285417737	0.35194648549461055	0.3226944793291264	0.6666410986210659	0.42279057393065866	0.42048045633872183	0.8867411539599583	0.34373036942701296	0.31087927404826043	1.0303755273720552	0.27982850069234855	0.23073087280431656	1.075350825688002	0.2949150053631344	0.20541019898526164	1.0753487578511876	0.29533343575533333	0.2532421158630265	1.092623865463985	0.06779105328599873	0.3447645613473267	0.6907278371128579	0.06658209657347727	0.42160194103519777	0.9595597413384539	0.1077263411951564	0.19416616834562658	0.870685526011939	0.11403410062981428	0.11607424040533454	0.7820138689432157	0.11443984357026867	0.09290601054331774	0.7951019544178852	0.12503736892683337	0.10254671530290979	0.8323067546262055
150	4.411764705882353	0.33150474321665835	0.5829531532655438	1.0962122314035123	0.30106295651705417	0.5900202366612062	1.4865642038261304	0.31449239034126625	0.7517265116552407	1.9290054379085126	0.2928569475205754	0.5721649544935155	1.9553925582890854	0.34669411384196547	0.6042635244120824	1.9546821006108006	0.29926547055370534	0.8563621637496139	1.994886729161112	0.14312957246570104	0.5477018787469079	1.0971065956375858	0.1407018084523357	0.629314070722153	1.4962999485756172	0.11276276218059937	0.7349355027263694	1.9009934599416598	0.12462445329126468	0.5668547094094092	1.9479431833752314	0.07830064773841036	0.6129715525135504	1.956638136294563	0.1281390599558934	0.7888871676742863	1.9480479212054502	0.2001170202349784	0.28239904313246744	0.6121006548470528	0.2079242174498219	0.14443795872087245	0.389619101846702	0.19530472557450262	0.10629891258745099	0.5198252386777444	0.3544957185820251	0.31704442947380174	0.6599097073021092	0.4328969653183259	0.4340690283298474	0.8821713539365071	0.3447643270760234	0.31349616489340604	1.027610790632788	0.2801046787732343	0.22606090419994396	1.0738446009633869	0.29460705900043616	0.20346535465114104	1.0724048062803206	0.3063757026354191	0.2715011954718443	1.0926443528324399	0.06808047095368684	0.3446303079325289	0.6881036367698818	0.06741142880117652	0.40844997548813544	0.9599794714622143	0.10682681892325563	0.19258938766960035	0.8595376393934542	0.11498385524709964	0.11682412779415696	0.77521408401868	0.11573390332833156	0.09175371503766058	0.7845905326738156	0.12308299070705472	0.08956748606157004	0.8164223661538976
151	4.441176470588236	0.33184806929435706	0.5847964344589394	1.0962478841209466	0.30102576419670124	0.5907356636707743	1.4878315617517321	0.3198929181759726	0.7619266129655584	1.9287938260974977	0.2928895710668063	0.5718173958420373	1.955239693085876	0.34545384309881	0.6054648375340539	1.9551861240680646	0.29915589494069517	0.8559127734941179	1.9945698552895448	0.14388226644847335	0.5487304956206026	1.0947563919981493	0.14083544369688522	0.6268683477673306	1.4960205314363741	0.11304813295766372	0.7359403475426292	1.902746599198411	0.12546211544448918	0.5601431261122455	1.9464413187369127	0.07830387053228996	0.6127045183156759	1.9567010450811395	0.12828261579968964	0.7899190647395383	1.948275165068603	0.20006977538290865	0.28125772179013386	0.6066631627518778	0.20565648930751157	0.1521450636986858	0.3825563342608966	0.19646388247970892	0.10694294972501228	0.5176291977414496	0.3573198357299944	0.32015740875110343	0.654376490258384	0.43889551016008066	0.4503242521894596	0.8762135245601579	0.34704809185911345	0.3197981942706093	1.0258215205833592	0.2804539270707981	0.22409375779204183	1.072935596316569	0.29424735013990433	0.20067828216142267	1.0706947738538743	0.31786862169162067	0.28938890021857117	1.0928663236754403	0.06779980038131847	0.3436424112411756	0.6850674292019826	0.06779935478875819	0.40315345006722225	0.9594991197240443	0.10794221707850882	0.1801609878055766	0.8436314573748531	0.1125049100795739	0.12204222683661799	0.7699134623166584	0.11587575254085956	0.09167963547656158	0.7739570438479443	0.1265975704133838	0.07377041612927172	0.8035394739955151
152	4.470588235294118	0.33156177396167313	0.5847939063550089	1.0922651581603642	0.301419956172878	0.5927630415568432	1.4896521726372987	0.3226358121652985	0.7619820048191637	1.9270648765166531	0.2928305818248559	0.5716630472769416	1.9554526040958864	0.3451973504438459	0.6010085699270324	1.9530145002585932	0.2992400141515735	0.8569328536952316	1.9938094776277264	0.14320272171209256	0.5484198727403338	1.0934560568366014	0.14090393008499955	0.6278917934343483	1.4966805264117102	0.11301846184003786	0.7358912219156096	1.902635319144941	0.12707527758635725	0.5569332174480681	1.9469694642730508	0.07825598878763926	0.6134159466968783	1.9559258234347427	0.12846165620732414	0.7906096784869913	1.948480935752103	0.20007719918698202	0.28088171857141464	0.6034069990688333	0.20426931738209964	0.15337932107708036	0.37802550444443295	0.19850841551783038	0.1074911630077171	0.5160628126843412	0.3582643881375447	0.3232887382315147	0.6495022842840675	0.44176545723245947	0.4573790885515796	0.8700072759188333	0.34872661376021646	0.3228674383573964	1.0255335021775278	0.2826394160336258	0.2317485622886002	1.0719879700065515	0.2941122490248699	0.20615983670211768	1.0717949296429896	0.3277223320247273	0.2959397726506232	1.0927530704189907	0.06942151667100385	0.34427238575737185	0.6829703187488694	0.07180087570125496	0.3923680021657764	0.9573745565306562	0.10825632518952513	0.16490975285150017	0.8249212401316264	0.10936312052457176	0.12320597653885636	0.7569124160378672	0.11433923986247327	0.09147908981890863	0.7578626280304144	0.13094680689992347	0.06274075512869325	0.786569744724259
153	4.5	0.3309092219437627	0.5790464630106344	1.0888934018417942	0.30192155127267767	0.5934921455143107	1.490642162550285	0.3219787592942961	0.7515486337418655	1.9229761338727633	0.29323536422495716	0.5724165721877247	1.955399395446737	0.34738969399390607	0.5917048422604111	1.9490219033408809	0.2994258901941633	0.8581518429565094	1.9934704350247308	0.14036939869784124	0.5476423045645986	1.0926926698241375	0.14110853770188386	0.6276602029856981	1.4968082172762176	0.11298981926536156	0.7357245927968261	1.9023524581383104	0.12674057059266056	0.5573731704027554	1.947112097556151	0.07816342351154563	0.6138857268117982	1.953317684411714	0.12830226195196248	0.7898075377293996	1.9486288115907284	0.20012296201539753	0.2809545210990255	0.6039636983349864	0.20541758730755244	0.1541201499837748	0.37462870438242785	0.19925196701570153	0.10699683985176965	0.5126766820513506	0.3580220744738948	0.32102386036041186	0.6431110442282578	0.44664727703146667	0.45240226818018514	0.8652536498421204	0.3481032229884694	0.3220633693566657	1.0236131570004852	0.2840655862605559	0.24566608999221848	1.0705774337630198	0.29401629052615924	0.2200439757931651	1.0728695666344952	0.335150628541515	0.29377385227920394	1.0917412573489176	0.07315696041887455	0.3452196085459053	0.6810861314260074	0.07759288879447787	0.37113825571335457	0.9549183180499655	0.10801543219908794	0.16092881380195057	0.8104797829394945	0.10829480633744915	0.1202858311536635	0.7384875334457962	0.11049901801514077	0.09249935817579841	0.7409785058402976	0.13102855121567333	0.06157186627562815	0.7720512331116213
